<?xml version="1.0" standalone="no"?>
<!DOCTYPE svg PUBLIC "-//W3C//DTD SVG 20010904//EN"
        "http://www.w3.org/TR/2001/REC-SVG-20010904/DTD/svg10.dtd">
<svg version="1.0" xmlns="http://www.w3.org/2000/svg"
     width="1024.000000pt" height="1024.000000pt" viewBox="0 0 1024.000000 1024.000000"
     preserveAspectRatio="xMidYMid meet">

    <g transform="translate(0.000000,1024.000000) scale(0.100000,-0.100000)"
       fill="#000000" stroke="none">
        <path d="M7140 7600 c-153 -28 -259 -61 -432 -135 -84 -37 -322 -134 -528
-217 -635 -255 -1195 -482 -1535 -623 -71 -29 -177 -72 -235 -95 -58 -23 -118
-48 -135 -55 -16 -8 -124 -52 -240 -98 -244 -99 -316 -128 -760 -312 -523
-217 -574 -235 -629 -221 -34 8 -60 49 -52 81 13 52 62 94 612 528 256 201
274 220 274 286 0 33 -6 56 -20 74 -25 32 -80 51 -120 42 -17 -4 -183 -121
-373 -262 -188 -141 -370 -276 -405 -302 -653 -479 -963 -761 -1138 -1033
-318 -495 -348 -1110 -82 -1679 46 -98 167 -285 246 -379 140 -168 396 -375
577 -467 237 -121 454 -180 700 -190 297 -13 504 35 965 224 107 44 281 114
385 156 477 189 1584 638 2020 819 66 28 175 72 243 99 121 48 225 92 697 294
301 128 346 145 395 145 70 0 103 -65 65 -124 -19 -29 -144 -134 -507 -425
-288 -231 -308 -252 -308 -325 0 -51 18 -83 58 -102 53 -25 95 -7 235 100 67
51 208 157 312 236 105 80 254 194 331 255 78 60 217 169 309 240 534 413 752
643 900 950 112 234 163 441 172 702 10 297 -38 545 -155 808 -25 55 -44 109
-43 120 0 11 4 45 7 76 6 56 6 57 -40 104 -26 26 -46 56 -46 68 0 35 -35 82
-73 100 -40 20 -65 21 -102 7 -24 -9 -33 -4 -115 71 -218 200 -458 339 -711
413 -171 49 -228 57 -424 62 -157 3 -208 0 -295 -16z m934 -392 c14 -6 35 -31
47 -56 24 -49 24 -102 -1 -607 -6 -121 -10 -245 -8 -275 l3 -55 15 30 c66 134
291 547 311 571 16 20 267 127 282 121 8 -3 18 -20 22 -37 6 -26 -6 -54 -81
-193 -185 -342 -197 -367 -191 -396 3 -16 36 -93 73 -172 36 -79 82 -177 100
-217 19 -39 34 -80 34 -90 0 -10 -12 -30 -27 -44 -37 -35 -256 -140 -284 -136
-23 3 -25 8 -174 363 -63 151 -85 188 -85 143 0 -14 -7 -140 -16 -279 -10
-170 -20 -261 -29 -280 -8 -15 -32 -42 -54 -60 -45 -39 -239 -126 -250 -113
-4 5 -4 63 0 129 4 66 15 278 24 470 8 193 22 494 31 669 13 295 13 320 -2
337 -22 25 -12 60 32 108 63 70 161 100 228 69z m-1790 -645 c10 -61 7 -236
-9 -588 -31 -697 -34 -770 -24 -779 10 -11 128 14 219 45 30 11 65 19 78 19
24 0 24 0 17 -82 -8 -106 -30 -185 -58 -210 -21 -19 -246 -118 -267 -118 -5 0
-10 7 -10 16 0 11 -8 9 -34 -11 -52 -40 -349 -165 -361 -153 -3 3 3 199 14
434 26 529 51 1106 51 1156 0 29 -8 47 -35 77 -34 37 -34 39 -16 55 10 10 95
49 187 87 93 38 178 74 189 79 40 17 52 12 59 -27z m404 14 c57 -61 46 -173
-24 -256 -35 -42 -74 -61 -126 -61 -157 1 -137 247 27 321 56 26 97 24 123 -4z
m807 -166 c55 -24 91 -71 111 -139 14 -48 16 -87 10 -252 -10 -324 -25 -557
-36 -599 -14 -52 -39 -69 -206 -142 l-136 -59 6 83 c16 210 36 666 31 699 -5
25 -17 47 -38 64 -55 46 -141 20 -203 -61 -29 -39 -26 -7 -49 -492 -15 -325
-18 -338 -73 -385 -27 -22 -260 -124 -266 -116 -2 1 3 116 10 253 7 138 20
389 28 559 11 221 19 313 28 321 12 11 281 135 293 135 3 0 5 -21 5 -47 l0
-46 55 61 c74 81 142 129 223 158 80 28 153 30 207 5z m-889 -438 c-4 -82 -11
-202 -16 -268 -5 -66 -10 -154 -10 -195 0 -101 -10 -117 -95 -150 -38 -15 -71
-27 -73 -25 -3 3 24 528 34 645 l6 75 72 32 c39 17 75 32 80 32 5 1 6 -62 2
-146z m-1482 -100 c4 -16 2 -127 -3 -248 -5 -121 -8 -221 -7 -222 1 -1 28 29
60 68 95 116 215 178 323 166 79 -9 133 -67 154 -165 9 -45 8 -134 -3 -418
-13 -319 -17 -365 -34 -394 -15 -26 -41 -44 -129 -85 -129 -61 -174 -79 -179
-74 -2 2 2 112 10 244 7 132 13 304 14 382 0 134 -1 143 -23 169 -50 58 -165
18 -186 -64 -5 -20 -14 -167 -20 -327 -17 -432 -15 -420 -65 -469 -29 -29 -71
-53 -141 -83 -55 -23 -101 -37 -103 -32 -6 15 54 1344 64 1416 6 50 45 85 145
133 83 39 115 40 123 3z m-1845 -425 c7 -22 -5 -413 -29 -918 -6 -129 -15
-344 -20 -478 -11 -277 -12 -283 -98 -326 -72 -35 -211 -90 -216 -85 -3 3 1
130 9 284 8 154 21 433 30 620 8 187 20 424 27 526 l11 186 -23 33 -24 33 30
23 c27 22 254 121 282 123 7 1 16 -9 21 -21z m1491 -148 c0 -91 -2 -100 -19
-100 -34 0 -105 -31 -135 -58 -37 -35 -56 -80 -56 -133 0 -49 24 -86 85 -130
94 -68 127 -165 106 -314 -39 -282 -201 -427 -433 -389 l-38 7 0 112 0 113 65
-6 c80 -6 136 15 165 63 42 68 22 127 -68 197 -74 57 -109 115 -120 195 -37
272 123 495 382 533 28 4 54 8 59 9 4 0 7 -44 7 -99z m-2214 -185 c77 -16 145
-43 178 -69 25 -20 23 -25 -109 -225 -109 -164 -123 -177 -176 -169 -18 2 -32
19 -54 65 -37 76 -58 99 -101 113 -52 17 -119 -9 -176 -68 -61 -63 -81 -105
-82 -174 -1 -104 37 -123 286 -144 245 -20 311 -37 364 -96 51 -55 59 -85 58
-218 -1 -108 -4 -136 -28 -210 -91 -277 -276 -484 -499 -556 -66 -22 -102 -27
-182 -27 -147 -1 -252 35 -364 123 -72 57 -81 79 -49 127 150 227 187 279 216
304 44 39 79 36 107 -8 11 -18 35 -57 54 -87 46 -74 94 -100 171 -93 163 14
303 227 207 314 -46 42 -67 47 -276 63 -211 17 -282 38 -334 100 -84 99 -72
355 24 542 49 95 167 225 262 288 148 99 337 139 503 105z m1519 -24 c22 -10
48 -27 57 -37 35 -40 60 -116 65 -198 6 -101 -23 -695 -36 -728 -12 -32 -45
-53 -176 -109 -102 -44 -110 -46 -113 -28 -2 10 -6 19 -9 19 -3 0 -38 -24 -77
-54 -85 -65 -149 -95 -226 -103 -129 -13 -208 53 -225 188 -18 148 48 323 169
445 83 84 159 134 276 185 76 33 85 39 88 66 2 20 -4 36 -23 53 -44 41 -106
34 -248 -30 -110 -49 -120 -52 -135 -36 -16 15 -15 19 6 60 78 146 248 277
411 315 64 16 153 12 196 -8z"/>
        <path d="M3795 4521 c-57 -44 -110 -107 -129 -154 -33 -79 -28 -164 12 -209
22 -26 78 -22 127 7 49 28 50 30 61 263 8 153 7 153 -71 93z"/>
    </g>
</svg>
